<svg data-v-0dd9719b="" version="1.0" xmlns="http://www.w3.org/2000/svg" xmlns:xlink="http://www.w3.org/1999/xlink" width="100%" height="100%" viewBox="0 0 340.000000 250.000000" preserveAspectRatio="xMidYMid meet" color-interpolation-filters="sRGB" style="margin: auto;"> <rect data-v-0dd9719b="" x="0" y="0" width="100%" height="100%" fill="#fff" fill-opacity="1" class="background"></rect> <rect data-v-0dd9719b="" x="0" y="0" width="100%" height="100%" fill="url(#watermark)" fill-opacity="1" class="watermarklayer"></rect> <g data-v-0dd9719b="" fill="#333" class="icon-text-wrapper icon-svg-group iconsvg" transform="translate(55.5,95.23999786376953)"><g class="iconsvg-imagesvg" transform="translate(0,0.41756248474121094)"><g><rect fill="#333" fill-opacity="0" stroke-width="2" x="0" y="0" width="60" height="58.68487201807494" class="image-rect"></rect> <svg x="0" y="0" width="60" height="58.68487201807494" filtersec="colorsb3395087933" class="image-svg-svg primary" style="overflow: visible;"><svg xmlns="http://www.w3.org/2000/svg" viewBox="-0.01445202436298132 0.017214691266417503 180.49942016601562 176.5436248779297"><g fill="#2092fd"><path d="M89.12 22.35H34.43a1.55 1.55 0 0 1-.53 0c-.59-.21-1.16-.45-1.74-.69a5.5 5.5 0 0 1 1-1.7A91.92 91.92 0 0 1 99.74.5a91.23 91.23 0 0 1 26.7 6.93 89.41 89.41 0 0 1 20 11.76 11.31 11.31 0 0 1 1.61 1.4.94.94 0 0 1-.6 1.67 10.56 10.56 0 0 1-1.87.09H91c.48.59.71.93 1 1.22q6.3 6.29 12.62 12.55a10.13 10.13 0 0 0 7.61 3c17.09-.07 34.18 0 51.28-.08a2.76 2.76 0 0 1 2.6 1.42 93 93 0 0 1 8.58 16.76c.68 1.7.33 2.2-1.52 2.2h-47.8a8.49 8.49 0 0 1-6.07-2.7c-3.94-3.89-7.85-7.8-11.77-11.71-1.52-1.51-1.66-1.54-3.21 0-4.32 4.27-8.63 8.53-12.9 12.84-.91.91-1.59.86-2.47 0q-6.57-6.59-13.2-13.12c-1.11-1.1-1.41-1.13-2.52 0-3.83 3.81-7.67 7.61-11.45 11.46a10.3 10.3 0 0 1-7.72 3.34H7.6C5.35 59.4 5 59 5.86 56.89a91 91 0 0 1 8.58-16.61A2.59 2.59 0 0 1 16.86 39c17.19 0 34.37 0 51.55.07a10.16 10.16 0 0 0 7.64-3.19c4.08-4.12 8.21-8.2 12.32-12.29.3-.3.58-.61.87-.92z" opacity=".7"></path><path d="M90.21 98.45H69.73a15.64 15.64 0 0 1-11.87-4.91c-3.15-3.23-6.36-6.4-9.56-9.57-1.59-1.58-1.77-1.57-3.32 0-3.84 3.86-7.72 7.68-11.52 11.57a12.45 12.45 0 0 1-9.32 4H2.45c-1.63 0-1.82-.21-2-1.84A87.38 87.38 0 0 1 .42 80c.19-1.75.35-1.91 2.17-1.91 12.36 0 24.73 0 37.09.06a11.67 11.67 0 0 0 9.19-3.74c3.43-3.63 7.05-7.08 10.59-10.61 1.91-1.91 1.92-1.91 3.88.06 3.47 3.48 7 6.91 10.38 10.44a12.17 12.17 0 0 0 9.35 3.83c4.87-.07 9.73-.06 14.6 0a11.87 11.87 0 0 0 9-3.74c3.61-3.65 7.24-7.27 10.86-10.91 1.44-1.45 1.71-1.47 3.13-.06 3.81 3.82 7.63 7.63 11.42 11.47a10.5 10.5 0 0 0 7.79 3.25h37.63c2.36 0 2.37 0 2.62 2.33a89.76 89.76 0 0 1-.13 17.5 1.5 1.5 0 0 1-1.74 1.56h-22.09a12.28 12.28 0 0 1-9.09-3.86q-5.79-5.85-11.61-11.68c-1.5-1.51-1.79-1.48-3.32.06-3.52 3.55-7 7.13-10.63 10.57a14 14 0 0 1-10 3.87H90.22zM90.07 137.49c-22.09 0-44.18-.13-66.27.09-6.57.07-10.92-2.52-13.57-8.32-1.88-4.13-2.33-2.92 1-6.23q10.26-10.27 20.56-20.51c1.47-1.47 1.77-1.49 3.24 0 3.63 3.63 7.26 7.25 10.87 10.9a11.89 11.89 0 0 0 8.84 3.74h71.36a11.42 11.42 0 0 0 8.36-3.59l11-11c1.54-1.54 1.8-1.54 3.34 0 7.29 7.28 14.57 14.58 21.9 21.82a2.21 2.21 0 0 1 .46 3.15c-.88 1.45-1.62 3-2.48 4.44a10.83 10.83 0 0 1-10 5.54zM90.37 154.15h55.15a4.37 4.37 0 0 1 1.2 0 12.46 12.46 0 0 1 1.59.71 4.82 4.82 0 0 1-.8 1.53 80.13 80.13 0 0 1-17.06 11 91.46 91.46 0 0 1-47.69 8.84 89.38 89.38 0 0 1-47.51-17.92 24.45 24.45 0 0 1-2.48-2 1.66 1.66 0 0 1-.52-1.34 1.64 1.64 0 0 1 1.23-.73c1.11-.1 2.23 0 3.35 0z"></path></g></svg></svg> <!----></g></g> <g transform="translate(67,0)"><g data-gra="path-name" fill-rule="" class="tp-name iconsvg-namesvg"><g transform="scale(1)"><g><path d="M30.72-29.82L30.72-29.82Q30.72-25.62 29.04-22.5 27.36-19.38 24.27-17.7 21.18-16.02 17.04-16.02L17.04-16.02 7.44-16.02 7.44 2.7 4.8 2.7 4.8-43.62 17.04-43.62Q21.18-43.62 24.27-41.94 27.36-40.26 29.04-37.14 30.72-34.02 30.72-29.82ZM28.02-29.82L28.02-29.82Q28.02-34.98 25.05-38.01 22.08-41.04 16.98-41.04L16.98-41.04 7.44-41.04 7.44-18.6 16.98-18.6Q22.08-18.6 25.05-21.6 28.02-24.6 28.02-29.82ZM50.22-31.44L50.22-31.44Q54.24-31.44 57.33-29.22 60.42-27 62.13-23.04 63.84-19.08 63.84-14.04L63.84-14.04Q63.84-9 62.13-5.07 60.42-1.14 57.33 1.08 54.24 3.3 50.22 3.3L50.22 3.3Q46.2 3.3 43.11 1.08 40.02-1.14 38.31-5.1 36.6-9.06 36.6-14.04L36.6-14.04Q36.6-19.08 38.31-23.04 40.02-27 43.11-29.22 46.2-31.44 50.22-31.44ZM50.22-29.04L50.22-29.04Q46.98-29.04 44.49-27.18 42-25.32 40.62-21.9 39.24-18.48 39.24-14.04L39.24-14.04Q39.24-9.6 40.62-6.21 42-2.82 44.49-0.96 46.98 0.9 50.22 0.9L50.22 0.9Q53.46 0.9 55.98-0.96 58.5-2.82 59.91-6.21 61.32-9.6 61.32-14.04L61.32-14.04Q61.32-18.48 59.91-21.9 58.5-25.32 55.98-27.18 53.46-29.04 50.22-29.04ZM95.46-30.84L97.62-30.84Q97.44-27.78 97.44-22.8L97.44-22.8 97.44 1.32Q97.44 8.4 93.93 12.15 90.42 15.9 83.76 15.9L83.76 15.9Q78.78 15.9 75.21 13.89 71.64 11.88 70.56 8.52L70.56 8.52 72.78 7.5Q73.74 10.38 76.56 11.91 79.38 13.44 83.76 13.44L83.76 13.44Q89.28 13.44 92.13 10.41 94.98 7.38 94.98 1.56L94.98 1.56 94.98-5.04Q93.42-1.02 90.48 1.14 87.54 3.3 83.58 3.3L83.58 3.3Q79.62 3.3 76.59 1.14 73.56-1.02 71.88-4.95 70.2-8.88 70.2-14.04L70.2-14.04Q70.2-19.2 71.88-23.13 73.56-27.06 76.59-29.25 79.62-31.44 83.58-31.44L83.58-31.44Q87.66-31.44 90.63-29.16 93.6-26.88 95.1-22.74L95.1-22.74Q95.22-29.22 95.46-30.84L95.46-30.84ZM94.98-14.04L94.98-14.04Q94.98-18.48 93.57-21.87 92.16-25.26 89.64-27.15 87.12-29.04 83.88-29.04L83.88-29.04Q80.64-29.04 78.12-27.15 75.6-25.26 74.22-21.87 72.84-18.48 72.84-14.04L72.84-14.04Q72.84-9.66 74.25-6.27 75.66-2.88 78.15-0.96 80.64 0.96 83.88 0.96L83.88 0.96Q87.12 0.96 89.64-0.96 92.16-2.88 93.57-6.27 94.98-9.66 94.98-14.04ZM132.3 2.7L130.2 2.7Q130.08 0.42 129.96-5.28L129.96-5.28Q128.4-1.08 125.25 1.11 122.1 3.3 117.66 3.3L117.66 3.3Q112.32 3.3 109.35 0.24 106.38-2.82 106.38-8.34L106.38-8.34 106.38-30.84 108.96-30.84 108.96-8.7Q108.96-3.78 111.18-1.41 113.4 0.96 118.02 0.96L118.02 0.96Q121.38 0.96 124.02-0.75 126.66-2.46 128.16-5.49 129.66-8.52 129.66-12.42L129.66-12.42 129.66-30.84 132.12-30.84 132.12-5.34Q132.12-0.3 132.3 2.7L132.3 2.7ZM166.8-14.46L166.8-14.04 142.5-14.04Q142.5-7.08 145.74-3.09 148.98 0.9 154.62 0.9L154.62 0.9Q158.34 0.9 160.47-0.6 162.6-2.1 164.04-5.7L164.04-5.7 166.2-4.68Q164.82-0.6 161.94 1.35 159.06 3.3 154.56 3.3L154.56 3.3Q150.18 3.3 146.85 1.2 143.52-0.9 141.69-4.83 139.86-8.76 139.86-14.04L139.86-14.04Q139.86-19.2 141.6-23.13 143.34-27.06 146.43-29.25 149.52-31.44 153.48-31.44L153.48-31.44Q159.72-31.44 163.26-26.88 166.8-22.32 166.8-14.46L166.8-14.46ZM142.62-16.44L142.62-16.44 164.22-16.44Q163.74-22.5 160.98-25.77 158.22-29.04 153.48-29.04L153.48-29.04Q149.04-29.04 146.1-25.62 143.16-22.2 142.62-16.44Z" transform="translate(-4.800000190734863, 43.619998931884766)"></path></g> <!----> <!----> <!----> <!----> <!----> <!----> <!----></g></g> <!----></g></g><defs v-gra="od"></defs></svg>